<svg xmlns="http://www.w3.org/2000/svg" xmlns:xlink="http://www.w3.org/1999/xlink" version="1.1" x="0px" y="0px" viewBox="0 0 496 620" style="enable-background:new 0 0 496 496;" xml:space="preserve"><g><path d="M56,80c13.233,0,24-10.766,24-24S69.233,32,56,32S32,42.766,32,56S42.767,80,56,80z M56,48c4.411,0,8,3.589,8,8   s-3.589,8-8,8s-8-3.589-8-8S51.589,48,56,48z"/><path d="M120,80c13.233,0,24-10.766,24-24s-10.767-24-24-24S96,42.766,96,56S106.767,80,120,80z M120,48c4.411,0,8,3.589,8,8   s-3.589,8-8,8s-8-3.589-8-8S115.589,48,120,48z"/><path d="M360,80c13.233,0,24-10.766,24-24s-10.767-24-24-24s-24,10.766-24,24S346.767,80,360,80z M360,48c4.411,0,8,3.589,8,8   s-3.589,8-8,8s-8-3.589-8-8S355.589,48,360,48z"/><path d="M448,288.581V280c0-10.11-6.287-18.774-15.154-22.303C435.622,247.512,444.948,240,456,240h24v-8c0-30.878-25.121-56-56-56   h-24v-65.376c9.311-3.302,16-12.195,16-22.624V24c0-13.234-10.767-24-24-24H24C10.767,0,0,10.766,0,24v64   c0,10.429,6.689,19.321,16,22.624v194.752C6.689,308.679,0,317.571,0,328v8c0,11.818,6.445,22.153,16,27.695v54.727l1.344,2.016   C28.85,437.696,48.103,448,68.845,448H304v18.422l1.344,2.016C316.85,485.696,336.103,496,356.845,496h86.311   c20.742,0,39.995-10.304,51.501-27.563l1.344-2.016V344C496,315.838,475.102,292.475,448,288.581z M368,280c0-4.411,3.589-8,8-8h48   c4.411,0,8,3.589,8,8v8h-64V280z M463.196,224H456c-19.317,0-35.478,13.764-39.195,32h-33.61c-3.717-18.236-19.878-32-39.195-32   h-55.999v-24c0-4.411,3.589-8,8-8H424C443.316,192,459.479,205.765,463.196,224z M320,259.313C320,275.131,307.132,288,291.314,288   c-1.827,0-3.313-1.486-3.313-3.313c0-0.886,0.344-1.717,0.971-2.343c9.691-9.692,15.029-22.578,15.029-36.285V240h15.998   L320,259.313z M368,176v-40c0-8.998-2.988-17.31-8.022-24H384v64H368z M400,24v64c0,4.411-3.589,8-8,8h-64h-8V16h72   C396.411,16,400,19.589,400,24z M16,24c0-4.411,3.589-8,8-8h280v80H88H24c-4.411,0-8-3.589-8-8V24z M48,136v144   c0,8.998,2.988,17.31,8.022,24H32V112h24.022C50.988,118.69,48,127.002,48,136z M68.845,432c-14.6,0-28.204-6.884-36.845-18.528   V368h32v8c0,13.233,10.767,24,24,24h216v32H68.845z M80,368h224v16H88c-4.411,0-8-3.589-8-8V368z M312,336h-8v16H32   c-8.822,0-16-7.178-16-16v-8c0-4.411,3.589-8,8-8h64h16h152v-16H104H88c-13.233,0-24-10.767-24-24v-8h80v-16H64v-16h80v-16H64v-88   c0-13.234,10.767-24,24-24h240c13.233,0,24,10.766,24,24v40h-55.999c-10.429,0-19.321,6.689-22.624,16h-33.376v48h32h8h8v6.059   c0,9.432-3.673,18.3-10.342,24.969c-3.648,3.646-5.658,8.497-5.658,13.658c0,10.649,8.664,19.313,19.313,19.313   c24.64,0,44.686-20.046,44.686-44.687L335.999,240H344c11.052,0,20.378,7.512,23.154,17.697C358.287,261.226,352,269.89,352,280v16   C352,318.056,334.056,336,312,336z M272.001,224h-16v-16h16V224z M480,461.472C471.359,473.116,457.755,480,443.155,480h-86.311   c-14.6,0-28.204-6.884-36.845-18.528V351.431c24.489-3.519,43.907-22.942,47.426-47.431H440c22.056,0,40,17.944,40,40V461.472z"/><path d="M440,320h-59.909l-2.099,4.79c-7.308,16.682-20.52,29.894-37.202,37.201L336,364.09v91.837l3.306,2.396   c5.127,3.714,11.191,5.678,17.539,5.678h86.311c6.348,0,12.412-1.964,17.539-5.678l3.306-2.396V344   C464,330.767,453.233,320,440,320z M448,447.137c-1.534,0.569-3.168,0.863-4.845,0.863h-86.311c-1.677,0-3.311-0.294-4.845-0.863   v-72.76c16.543-8.453,29.924-21.834,38.378-38.377H440c4.411,0,8,3.589,8,8V447.137z"/><rect x="368" y="416" width="64" height="16"/><rect x="368" y="384" width="64" height="16"/><rect x="400" y="352" width="32" height="16"/><rect x="160" y="208" width="64" height="16"/><rect x="184" y="145.824" transform="matrix(0.3511 -0.9363 0.9363 0.3511 -43.955 296.573)" width="16" height="68.352"/><rect x="157.824" y="244" transform="matrix(0.9363 -0.3511 0.3511 0.9363 -76.2535 83.4531)" width="68.352" height="15.999"/></g><text x="0" y="511" fill="#000000" font-size="5px" font-weight="bold" font-family="'Helvetica Neue', Helvetica, Arial-Unicode, Arial, Sans-serif">Created by Eucalyp</text><text x="0" y="516" fill="#000000" font-size="5px" font-weight="bold" font-family="'Helvetica Neue', Helvetica, Arial-Unicode, Arial, Sans-serif">from the Noun Project</text></svg>